<?xml version="1.0" encoding="UTF-8" standalone="no"?>
<svg xmlns="http://www.w3.org/2000/svg" xmlns:xlink="http://www.w3.org/1999/xlink" xmlns:serif="http://www.serif.com/" width="100%" height="100%" viewBox="0 0 210 92" version="1.1" xml:space="preserve" style="fill-rule:evenodd;clip-rule:evenodd;stroke-linejoin:round;stroke-miterlimit:2;">
    <g transform="matrix(4.16667,0,0,4.16667,-926.25,-379.856)">
        <g transform="matrix(0.203008,0,0,0.228554,195.794,94.4724)">
            <path d="M140.26,61.398L133.473,61.398L133.473,77.443L135.538,77.443L135.538,72.355L140.26,72.355C144.725,72.355 147.305,70.315 147.305,66.785C147.305,63.369 144.725,61.398 140.26,61.398ZM140.183,70.658L135.538,70.658L135.538,63.094L140.183,63.094C143.434,63.094 145.318,64.378 145.318,66.831C145.318,69.352 143.434,70.658 140.183,70.658Z" style="fill:rgb(3,3,4);fill-rule:nonzero;"></path>
            <path d="M157.885,65.318C155.382,65.341 153.524,66.212 152.595,68.091L152.595,60.436L150.582,60.436L150.582,77.443L152.595,77.443L152.595,71.529C152.595,68.893 154.298,67.06 157.189,67.037C159.589,67.037 161.034,68.32 161.034,70.475L161.034,77.443L163.047,77.443L163.047,70.017C163.047,67.083 161.137,65.318 157.885,65.318Z" style="fill:rgb(3,3,4);fill-rule:nonzero;"></path>
            <path d="M177.936,77.443L177.911,69.467C177.885,66.899 176.027,65.318 172.672,65.318C170.35,65.318 168.879,65.914 167.124,66.945L167.975,68.206C169.395,67.312 170.788,66.808 172.285,66.808C174.685,66.808 175.924,67.885 175.924,69.65L175.924,70.406L171.459,70.406C168.259,70.429 166.376,71.759 166.376,73.867C166.376,75.93 168.182,77.512 170.995,77.512C173.162,77.512 174.891,76.87 175.975,75.564L175.975,77.443L177.936,77.443ZM171.382,76.022C169.472,76.022 168.259,75.128 168.259,73.799C168.259,72.446 169.446,71.827 171.717,71.827L175.949,71.827L175.949,73.294C175.433,75.013 173.679,76.022 171.382,76.022Z" style="fill:rgb(3,3,4);fill-rule:nonzero;"></path>
            <path d="M184.439,68.068L184.439,65.387L182.427,65.387L182.427,77.443L184.439,77.443L184.439,71.025C184.672,68.595 186.452,67.014 189.317,67.06L189.317,65.318C187.02,65.341 185.343,66.303 184.439,68.068Z" style="fill:rgb(3,3,4);fill-rule:nonzero;"></path>
            <path d="M209.445,65.318C206.839,65.341 204.929,66.349 204.078,68.458C203.51,66.464 201.755,65.318 199.2,65.318C196.749,65.341 194.917,66.235 194.013,68.114L194.013,65.387L192.026,65.387L192.026,77.443L194.013,77.443L194.013,71.506C194.013,68.893 195.691,67.083 198.478,67.014C200.852,67.014 202.245,68.298 202.245,70.475L202.245,77.443L204.284,77.443L204.284,71.506C204.284,68.893 205.91,67.083 208.723,67.014C211.071,67.014 212.49,68.298 212.49,70.475L212.49,77.443L214.503,77.443L214.503,70.017C214.503,67.083 212.619,65.318 209.445,65.318Z" style="fill:rgb(3,3,4);fill-rule:nonzero;"></path>
            <path d="M229.367,77.443L229.341,69.467C229.315,66.899 227.457,65.318 224.103,65.318C221.78,65.318 220.309,65.914 218.555,66.945L219.406,68.206C220.825,67.312 222.219,66.808 223.716,66.808C226.116,66.808 227.354,67.885 227.354,69.65L227.354,70.406L222.89,70.406C219.69,70.429 217.806,71.759 217.806,73.867C217.806,75.93 219.613,77.512 222.425,77.512C224.593,77.512 226.322,76.87 227.406,75.564L227.406,77.443L229.367,77.443ZM222.812,76.022C220.903,76.022 219.69,75.128 219.69,73.799C219.69,72.446 220.877,71.827 223.148,71.827L227.38,71.827L227.38,73.294C226.864,75.013 225.109,76.022 222.812,76.022Z" style="fill:rgb(3,3,4);fill-rule:nonzero;"></path>
            <path d="M254.476,74.486C253.082,75.334 251.354,75.839 249.728,75.839C245.599,75.839 242.27,72.996 242.27,69.421C242.27,65.868 245.573,63.026 249.702,63.026C251.715,63.026 253.702,63.713 255.173,64.882L256.36,63.553C254.631,62.2 252.205,61.352 249.702,61.352C244.386,61.352 240.18,64.905 240.18,69.421C240.18,73.936 244.36,77.512 249.599,77.512C252.024,77.512 254.528,76.687 256.308,75.426L256.308,69.604L254.476,69.604L254.476,74.486Z" style="fill:rgb(3,3,4);fill-rule:nonzero;"></path>
            <path d="M278.449,65.318C275.843,65.341 273.933,66.349 273.082,68.458C272.514,66.464 270.759,65.318 268.205,65.318C265.753,65.341 263.921,66.235 263.018,68.114L263.018,65.387L261.031,65.387L261.031,77.443L263.018,77.443L263.018,71.506C263.018,68.893 264.695,67.083 267.482,67.014C269.856,67.014 271.25,68.298 271.25,70.475L271.25,77.443L273.288,77.443L273.288,71.506C273.288,68.893 274.914,67.083 277.727,67.014C280.075,67.014 281.494,68.298 281.494,70.475L281.494,77.443L283.507,77.443L283.507,70.017C283.507,67.083 281.624,65.318 278.449,65.318Z" style="fill:rgb(3,3,4);fill-rule:nonzero;"></path>
            <path d="M295.352,65.318C292.978,65.318 291.12,66.303 290.114,67.977L290.114,60.436L288.101,60.436L288.101,77.443L290.114,77.443L290.114,74.853C291.12,76.526 292.978,77.512 295.404,77.512C299.249,77.512 301.881,75.013 301.881,71.438C301.881,67.839 299.197,65.318 295.352,65.318ZM294.991,75.93C292.126,75.93 290.114,74.051 290.114,71.392C290.114,68.756 292.126,66.853 294.991,66.853C297.829,66.853 299.842,68.779 299.842,71.392C299.842,74.028 297.829,75.93 294.991,75.93Z" style="fill:rgb(3,3,4);fill-rule:nonzero;"></path>
            <path d="M305.7,61.398L305.7,77.443L307.765,77.443L307.765,70.338L318.655,70.338L318.655,77.443L320.719,77.443L320.719,61.398L318.655,61.398L318.655,68.664L307.765,68.664L307.765,61.398L305.7,61.398Z" style="fill:rgb(3,3,4);fill-rule:nonzero;"></path>
        </g>
        <g transform="matrix(0.203008,0,0,0.228554,219.712,94.2166)">
            <g transform="matrix(1.12584,0,0,1,-16.4522,0)">
                <g transform="matrix(22.9212,0,0,22.9212,139.081,77.4431)">
                </g>
                <text x="130.738px" y="77.443px" style="font-family:'Montserrat-Light', 'Montserrat';font-weight:300;font-size:22.921px;fill:rgb(3,3,4);">-</text>
            </g>
        </g>
        <g>
            <g transform="matrix(0.101833,0,0,0.101833,222.3,91.1341)">
                <path d="M375.663,86.084C381.28,86.645 392.506,90.986 401.215,96.04C412.598,102.652 419.959,108.203 426.061,114.828C424.64,112.091 423.741,109.418 422.816,106.247C424.267,108.561 426.108,110.635 428.209,112.866C426.905,101.479 428.871,79.148 440.729,58.665C446.85,48.092 456.586,38.169 466.374,34.934C476.291,31.654 479.277,39.26 482.394,44.824C489.271,57.091 495.024,75.229 491.313,89.255C488.596,99.513 482.37,103.979 472.378,104.782C476.015,104.487 480.128,105.169 483.266,106.79C492.947,111.785 497.241,122.201 492.703,132.876C488.375,143.062 480.228,147.423 467.68,145.696C454.618,143.897 447.068,132.871 442.149,129.351C444.267,132.116 446.215,134.564 447.531,135.748C446.35,135.054 443.859,133.507 441.885,132.11C445.085,135.352 448.794,138.666 453.03,144.732C455.366,148.08 457.335,151.533 456.323,153.146C455.124,155.063 451.473,154.434 448.405,153.281C439.104,149.798 434.281,145.946 429.709,141.584C424.712,136.817 421.534,130.286 422.95,126.608C420.324,128.808 417.19,128.482 412.936,126.21C401.536,120.101 387.754,109.942 377.4,99.724C372.149,94.54 370.052,91.419 370.109,89.746C370.237,85.967 373.95,85.918 375.663,86.084Z" style="fill:rgb(138,14,43);fill-rule:nonzero;"></path>
            </g>
            <g transform="matrix(0.101833,0,0,0.101833,222.3,91.1341)">
                <path d="M483.936,96.394C493.332,81.95 485.764,61.666 478.735,48.01C476.402,43.471 473.747,38.164 467.756,40.55C459.531,43.831 451.357,52.098 444.83,61.841C432.733,79.877 428.984,102.054 428.913,113.603C430.492,115.267 432.143,116.829 435.003,120.233C437.47,115.577 443.5,110.755 452.605,107.802C462.93,104.442 479.041,103.922 483.936,96.394Z" style="fill:url(#_Linear1);"></path>
            </g>
            <g transform="matrix(0.101833,0,0,0.101833,222.3,91.1341)">
                <path d="M468.066,142.699C482.208,143.358 486.804,135.069 488.415,131.312C489.429,128.943 494.039,116.272 482.053,109.089C475.098,104.909 464.891,106.932 456.634,108.731C447.436,110.75 438.062,116.24 435.569,120.857C437.652,123.355 439.503,125.901 441.72,128.787C446.898,131.753 455.526,142.119 468.066,142.699Z" style="fill:url(#_Linear2);"></path>
            </g>
            <g transform="matrix(0.101833,0,0,0.101833,222.3,91.1341)">
                <path d="M424.997,131.651C426.493,135.079 428.266,136.954 431.376,140.141C436.373,145.264 443.965,148.958 446.84,150.285C448.997,151.284 453.004,152.508 453.772,152.122C455.142,151.433 452.907,147.595 451.47,145.325C448.971,141.367 444.021,135.094 440.44,130.941C437.196,128.534 434.521,126.297 431.507,122.723C429.173,121.83 427.323,122.169 426.059,123.149C424.369,124.454 423.517,128.264 424.997,131.651Z" style="fill:url(#_Linear3);"></path>
            </g>
            <g transform="matrix(0.101833,0,0,0.101833,222.3,91.1341)">
                <path d="M372.903,91.554C382.622,103.964 400.868,116.693 413.316,123.994C415.602,125.332 420.023,126.756 421.887,125.375C423.021,124.541 423.777,123.257 425.177,122.399C426.688,121.468 428.545,120.994 430.74,121.802C428.85,119.511 427.583,117.606 426.522,115.692C420.316,111.408 408.087,103.763 395.444,97.326C388.539,93.858 378.098,90.063 374.066,89.514C373.11,89.387 371.537,89.813 372.903,91.554Z" style="fill:url(#_Linear4);"></path>
            </g>
        </g>
        <g>
            <g transform="matrix(0.0977508,0,0,0.0977508,222.3,91.1353)">
                <path d="M335.577,93.539L333.08,96.214C312.928,117.851 302.315,137.349 301.252,154.711L296.26,151.589C290.135,147.846 287.067,144.421 287.067,141.328C287.067,137.049 291.008,129.707 298.886,119.309C306.764,108.907 315.843,99.069 326.128,89.794L331.12,85.246L328.798,81.236C324.639,74.334 320.344,64.944 315.918,53.059C311.489,41.174 309.273,33.201 309.273,29.165C309.273,23.401 313.108,19.265 320.778,16.766L324.967,15.429C325.383,21.02 327.677,29.724 331.835,41.554C335.992,53.387 340.243,63.283 344.587,71.252L346.279,74.367L349.221,72.233C357.305,66.046 363.979,58.51 369.24,49.624C374.498,40.741 377.129,32.553 377.129,25.059C377.129,23.575 376.922,22.028 376.504,20.428L378.914,19.171C382.775,17.154 386.494,16.143 390.059,16.143C393.681,16.143 395.496,18.02 395.496,21.763C395.496,29.247 391.532,38.495 383.59,49.49C375.657,60.488 365.536,70.74 353.233,80.254L350.565,82.398L352.342,85.962C358.107,97.311 365.686,108.549 375.078,119.668C381.018,126.679 385.912,131.394 389.744,133.797C393.58,136.202 398.172,137.407 403.524,137.407C405.721,137.407 408.251,136.846 411.1,135.711C403.847,147.307 396.715,153.095 389.701,153.095C382.569,153.095 373.652,147.071 362.951,134.996C359.44,131.079 354.778,124.823 348.949,116.227C343.125,107.64 339.292,101.387 337.453,97.456L335.577,93.539Z" style="fill:rgb(138,14,43);fill-rule:nonzero;"></path>
            </g>
            <g transform="matrix(0.0977508,0,0,0.0977508,222.3,91.1353)">
                <path d="M190.242,107.538L188.459,110.926C180.968,124.893 177.225,135.711 177.225,143.379C177.225,145.639 178.086,147.846 179.809,149.977C178.382,150.453 175.172,151.62 170.184,153.453C167.859,154.288 165.663,154.711 163.581,154.711C159.419,154.711 157.34,152.717 157.34,148.734C157.34,140.466 162.479,127.866 172.765,110.926L175.527,106.382L170.98,106.382C161.233,106.382 153.685,107.893 148.336,110.926C151.131,100.88 158.644,95.859 170.893,95.859L181.952,96.124L184.359,92.556C193.688,78.526 207.954,59.655 227.156,35.94C233.638,27.911 238.479,22.925 241.69,20.957C244.904,18.998 251.113,17.216 260.325,15.612C258.604,26.311 257.742,36.269 257.742,45.482C257.742,69.909 260.558,94.67 266.21,119.754C269.301,133.541 274.023,142.43 280.389,146.416C274.798,151.945 270.013,154.711 266.03,154.711C256.635,154.711 249.385,138.604 244.28,106.382C234.467,107.449 224.569,107.984 214.583,107.984L190.242,107.538ZM196.662,97.018L214.676,97.456C226.978,97.456 236.4,97.044 242.941,96.214C240.202,75.353 238.835,58.052 238.835,44.317L238.924,37.629C236.965,40.128 232.565,45.538 225.731,53.866C213.369,69.016 204.299,82.24 198.535,93.539L196.662,97.018Z" style="fill:rgb(138,14,43);fill-rule:nonzero;"></path>
            </g>
            <g transform="matrix(0.0977508,0,0,0.0977508,222.3,91.1353)">
                <path d="M32.545,62.192L20.863,120.768C19.377,128.315 18.635,134.226 18.635,138.511C18.635,142.97 20.507,146.445 24.254,148.942C17.774,150.968 12.72,151.971 9.096,151.971C3.032,151.971 0,149.536 0,144.658C0,139.255 1.784,129.657 5.347,115.859L25.054,39.899L21.399,28.663C17.238,16.12 13.194,8.481 9.275,5.748C14.919,2.122 19.94,0.308 24.341,0.308C27.61,0.308 30.417,2.885 32.77,8.017C35.118,13.161 39.408,26.256 45.656,47.293C46.899,51.518 47.941,54.84 48.776,57.287L50.376,61.744C59.413,88.071 67.287,101.239 74.003,101.239C81.317,101.239 91.497,90.591 104.546,69.271C117.591,47.969 124.684,30.449 125.812,16.713C132.407,14.516 137.285,13.417 140.433,13.417C146.261,13.417 149.172,16.627 149.172,23.045C149.172,25.184 148.49,31.129 147.123,40.879C145.813,49.737 144.896,56.836 144.358,62.192L138.204,120.32C137.789,124.426 137.582,128.409 137.582,132.273C137.582,144.104 139.958,151.467 144.717,154.39C138.61,158.665 133.4,160.806 129.076,160.806C122.024,160.806 118.497,153.465 118.497,138.776C118.497,132.891 118.946,125.701 119.838,117.202L127.591,43.464C120.521,64.745 111.395,82.862 100.223,97.808C89.045,112.76 79.056,120.236 70.26,120.236C63.361,120.236 56.563,115.075 49.844,104.762C43.126,94.448 37.36,80.254 32.545,62.192Z" style="fill:rgb(138,14,43);fill-rule:nonzero;"></path>
            </g>
        </g>
    </g>
    <defs>
        <linearGradient id="_Linear1" x1="0" y1="0" x2="1" y2="0" gradientUnits="userSpaceOnUse" gradientTransform="matrix(55.2042,6.8588,-6.8588,55.2042,432.896,77.6019)"><stop offset="0" style="stop-color:rgb(255,227,6);stop-opacity:1"></stop><stop offset="1" style="stop-color:rgb(248,172,0);stop-opacity:1"></stop></linearGradient>
        <linearGradient id="_Linear2" x1="0" y1="0" x2="1" y2="0" gradientUnits="userSpaceOnUse" gradientTransform="matrix(54.1352,6.72599,-6.72599,54.1352,435.633,120.337)"><stop offset="0" style="stop-color:rgb(255,227,6);stop-opacity:1"></stop><stop offset="1" style="stop-color:rgb(248,172,0);stop-opacity:1"></stop></linearGradient>
        <linearGradient id="_Linear3" x1="0" y1="0" x2="1" y2="0" gradientUnits="userSpaceOnUse" gradientTransform="matrix(32.44,4.03049,-4.03049,32.44,423.297,134.975)"><stop offset="0" style="stop-color:rgb(255,227,6);stop-opacity:1"></stop><stop offset="1" style="stop-color:rgb(248,172,0);stop-opacity:1"></stop></linearGradient>
        <linearGradient id="_Linear4" x1="0" y1="0" x2="1" y2="0" gradientUnits="userSpaceOnUse" gradientTransform="matrix(61.335,7.62052,-7.62052,61.335,370.61,104.489)"><stop offset="0" style="stop-color:rgb(255,227,6);stop-opacity:1"></stop><stop offset="1" style="stop-color:rgb(248,172,0);stop-opacity:1"></stop></linearGradient>
    </defs>
</svg>
